# Blender 5.1.2
# www.blender.org
mtllib defend.mtl
o Plane
v 0.000000 -1.267692 0.000000
v 0.000000 1.137559 0.000000
v -1.000000 1.265137 0.000000
v 1.000000 1.265137 0.000000
v -1.000000 -0.447927 0.000000
v 1.000000 -0.447927 0.000000
v -0.000000 -0.210503 -0.000000
v -0.717059 -0.857810 0.000000
v 0.237781 -0.210503 -0.000000
v 0.500000 1.137559 0.000000
v -0.500000 1.137559 0.000000
v -0.000000 -0.600352 -0.000000
v 0.717059 -0.857810 0.000000
v -0.341007 -0.405428 -0.000000
v -0.506559 -0.604583 -0.000000
v -0.000000 -0.894141 -0.000000
v 0.706440 -0.315026 -0.000000
v 0.706440 0.895151 -0.000000
v -0.353220 0.805025 -0.000000
v -0.706440 0.895151 -0.000000
v -0.706440 -0.315026 -0.000000
v 0.353220 0.805025 -0.000000
v -0.000000 0.805025 -0.000000
v 0.506559 -0.604583 -0.000000
v 0.475563 -0.210503 -0.000000
v 0.475563 0.604167 -0.000000
v -0.237781 0.543495 -0.000000
v -0.475563 0.604167 -0.000000
v -0.475563 -0.210503 -0.000000
v 0.237781 0.543495 -0.000000
v -0.000000 0.543495 -0.000000
v -0.237781 -0.210503 -0.000000
v 0.341007 -0.405428 -0.000000
v -0.000000 -0.307965 -0.000000
vn -0.0000 -0.0000 1.0000
vt 0.500000 0.250000
vt 0.625000 0.375000
vt 0.250000 0.500000
vt 0.000000 0.500000
vt 0.250000 1.000000
vt 0.000000 1.000000
vt 1.000000 0.000000
vt 1.000000 0.250000
vt 0.500000 0.500000
vt 0.750000 0.500000
vt 0.750000 1.000000
vt 0.500000 1.000000
vt 1.000000 0.500000
vt 1.000000 1.000000
s 0
f 14/1/1 34/2/1 32/3/1 29/4/1
f 29/4/1 32/3/1 27/5/1 28/6/1
f 12/7/1 33/8/1 34/2/1 14/1/1
f 7/9/1 9/10/1 30/11/1 31/12/1
f 33/8/1 25/13/1 9/10/1 34/2/1
f 32/3/1 7/9/1 31/12/1 27/5/1
f 34/2/1 9/10/1 7/9/1 32/3/1
f 9/10/1 25/13/1 26/14/1 30/11/1
f 10/11/1 2/12/1 23/12/1 22/11/1
f 6/13/1 4/14/1 18/14/1 17/13/1
f 5/4/1 8/1/1 15/1/1 21/4/1
f 1/7/1 13/8/1 24/8/1 16/7/1
f 11/5/1 3/6/1 20/6/1 19/5/1
f 8/1/1 1/7/1 16/7/1 15/1/1
f 13/8/1 6/13/1 17/13/1 24/8/1
f 2/12/1 11/5/1 19/5/1 23/12/1
f 3/6/1 5/4/1 21/4/1 20/6/1
f 4/14/1 10/11/1 22/11/1 18/14/1
