# Blender 5.1.2
# www.blender.org
mtllib diamond_bullet_3d.mtl
o Plane
v 0.000000 0.000000 -2.000000
v 0.000000 0.000000 2.000000
v 1.060660 0.000000 0.000000
v -0.000000 -0.530330 0.000000
v -1.060660 -0.000000 0.000000
v 0.000000 0.530330 0.000000
v -0.000000 0.000000 -2.650000
v 0.000000 0.000000 2.650000
v 1.405375 0.000000 -0.000000
v -0.000000 -0.702687 0.000000
v -1.405375 -0.000000 -0.000000
v 0.000000 0.702687 -0.000000
vn 0.4351 -0.8703 0.2308
vn -0.4351 0.8703 0.2308
vn 0.4351 0.8703 0.2308
vn -0.4351 -0.8703 0.2308
vn -0.4351 -0.8703 -0.2308
vn 0.4351 0.8703 -0.2308
vn -0.4351 0.8703 -0.2308
vn 0.4351 -0.8703 -0.2308
vt 1.000000 0.000000
vt 1.000000 1.000000
vt 0.000000 1.000000
vt 0.000000 0.000000
s 0
usemtl Material.001
f 4/1/1 3/2/1 2/1/1
f 6/3/2 5/4/2 2/3/2
f 3/2/3 6/3/3 2/2/3
f 5/4/4 4/1/4 2/4/4
f 1/1/5 4/1/5 5/4/5
f 1/3/6 6/3/6 3/2/6
f 1/4/7 5/4/7 6/3/7
f 1/2/8 3/2/8 4/1/8
usemtl Material.002
f 10/1/7 8/1/7 9/2/7
f 12/3/8 8/3/8 11/4/8
f 9/2/5 8/2/5 12/3/5
f 11/4/6 8/4/6 10/1/6
f 7/1/3 11/4/3 10/1/3
f 7/3/4 9/2/4 12/3/4
f 7/4/1 12/3/1 11/4/1
f 7/2/2 10/1/2 9/2/2
