# Blender 5.2.0 LTS
# www.blender.org
mtllib lilypad_1.mtl
o Cylinder
v 0.000000 0.922938 -1.000000
v 0.000000 0.978669 -1.000000
v 0.866025 0.922938 -0.500000
v 0.866025 0.978669 -0.500000
v 0.866025 0.922938 0.500000
v 0.866025 0.978669 0.500000
v 0.000000 0.922938 1.000000
v 0.000000 0.978669 1.000000
v -0.866025 0.922938 0.500000
v -0.866025 0.978669 0.500000
v -0.866025 0.922938 -0.500000
v -0.866025 0.978669 -0.500000
v -0.000000 0.925161 -0.920233
v -0.000000 0.976446 -0.920233
v 0.796945 0.925161 -0.460117
v 0.796945 0.976446 -0.460117
v 0.796945 0.925161 0.460117
v 0.796945 0.976446 0.460117
v -0.000000 0.925161 0.920233
v -0.000000 0.976446 0.920233
v -0.796945 0.925161 0.460117
v -0.796945 0.976446 0.460117
v -0.796945 0.925161 -0.460117
v -0.796945 0.976446 -0.460117
v -0.000000 0.925161 -0.736187
v -0.000000 0.976446 -0.736187
v 0.637556 0.925161 -0.368093
v 0.637556 0.976446 -0.368093
v 0.637556 0.925161 0.368093
v 0.637556 0.976446 0.368093
v -0.000000 0.925161 0.736187
v -0.000000 0.976446 0.736187
v -0.637556 0.925161 0.368093
v -0.637556 0.976446 0.368093
v -0.637556 0.925161 -0.368093
v -0.637556 0.976446 -0.368093
v -0.000000 0.937691 -0.920233
v 0.796945 0.937691 -0.460117
v 0.796945 0.937691 0.460117
v -0.000000 0.937691 0.920233
v -0.796945 0.937691 0.460117
v -0.796945 0.937691 -0.460117
vn 0.5000 -0.0000 -0.8660
vn 1.0000 -0.0000 -0.0000
vn 0.5000 -0.0000 0.8660
vn -0.5000 -0.0000 0.8660
vn -1.0000 -0.0000 -0.0000
vn -0.5000 -0.0000 -0.8660
vn 0.0322 -0.9995 -0.0000
vn 0.0161 -0.9995 -0.0279
vn 0.0161 0.9995 0.0279
vn -0.0161 -0.9995 0.0279
vn -0.0161 -0.9995 -0.0279
vn 0.0322 0.9995 -0.0000
vn -0.0322 -0.9995 -0.0000
vn 0.0161 0.9995 -0.0279
vn -0.0161 0.9995 0.0279
vn -0.0161 0.9995 -0.0279
vn -0.0322 0.9995 -0.0000
vn 0.0161 -0.9995 0.0279
vn -0.0000 1.0000 -0.0000
vt 1.000000 0.500000
vt 1.000000 1.000000
vt 0.833333 1.000000
vt 0.833333 0.500000
vt 0.666667 1.000000
vt 0.666667 0.500000
vt 0.500000 1.000000
vt 0.500000 0.500000
vt 0.333333 1.000000
vt 0.333333 0.500000
vt 0.166667 1.000000
vt 0.166667 0.500000
vt -0.000000 1.000000
vt -0.000000 0.500000
vt 0.000000 0.000000
s 0
usemtl Material.001
f 1/1/1 2/2/1 4/3/1 3/4/1
f 3/4/2 4/3/2 6/5/2 5/6/2
f 5/6/3 6/5/3 8/7/3 7/8/3
f 7/8/4 8/7/4 10/9/4 9/10/4
f 9/10/5 10/9/5 12/11/5 11/12/5
f 11/12/6 12/11/6 2/13/6 1/14/6
f 9/10/7 11/12/7 23/12/7 21/10/7
f 7/8/8 9/10/8 21/10/8 19/8/8
f 2/13/9 12/11/9 24/11/9 14/13/9
f 1/1/10 3/4/10 15/4/10 13/1/10
f 5/6/11 7/8/11 19/8/11 17/6/11
f 12/11/12 10/9/12 22/9/12 24/11/12
f 3/4/13 5/6/13 17/6/13 15/4/13
f 10/9/14 8/7/14 20/7/14 22/9/14
f 4/3/15 2/2/15 14/2/15 16/3/15
f 8/7/16 6/5/16 18/5/16 20/7/16
f 6/5/17 4/3/17 16/3/17 18/5/17
f 11/12/18 1/14/18 13/14/18 23/12/18
f 23/12/3 13/14/3 14/13/3 24/11/3
f 13/14/4 15/4/4 16/3/4 14/13/4
f 15/4/5 17/6/5 18/5/5 16/3/5
f 17/6/6 19/8/6 20/7/6 18/5/6
f 19/8/1 21/10/1 22/9/1 20/7/1
f 21/10/2 23/12/2 24/11/2 22/9/2
f 35/12/3 25/14/3 26/13/3 36/11/3
f 25/14/4 27/4/4 28/3/4 26/13/4
f 27/4/5 29/6/5 30/5/5 28/3/5
f 29/6/6 31/8/6 32/7/6 30/5/6
f 31/8/1 33/10/1 34/9/1 32/7/1
f 33/10/2 35/12/2 36/11/2 34/9/2
usemtl Material.002
f 38/15/19 37/15/19 42/15/19 41/15/19 40/15/19 39/15/19
