# Blender 5.2.0 LTS
# www.blender.org
o Cylinder.002
v 0.746275 0.675364 0.470155
v 0.746275 0.708486 0.470155
v 0.015825 0.675364 0.891880
v 0.015825 0.708486 0.891880
v -0.714625 0.675364 0.470155
v -0.714625 0.708486 0.470155
v 0.688009 0.676685 0.436515
v 0.688009 0.707165 0.436515
v 0.015825 0.676685 0.824601
v 0.015825 0.707165 0.824601
v -0.656359 0.676685 0.436515
v -0.656359 0.707165 0.436515
vn 0.5000 -0.0000 0.8660
vn -0.5000 -0.0000 0.8660
vn 0.0113 -0.9997 -0.0196
vn -0.0113 -0.9997 -0.0196
vn 0.0113 0.9997 -0.0196
vn -0.0113 0.9997 -0.0196
vn 0.5000 -0.0000 -0.8660
vn -0.5000 -0.0000 -0.8660
vt 0.666667 0.500000
vt 0.666667 1.000000
vt 0.500000 1.000000
vt 0.500000 0.500000
vt 0.333333 1.000000
vt 0.333333 0.500000
s 0
f 1/1/1 2/2/1 4/3/1 3/4/1
f 3/4/2 4/3/2 6/5/2 5/6/2
f 3/4/3 5/6/3 11/6/3 9/4/3
f 1/1/4 3/4/4 9/4/4 7/1/4
f 6/5/5 4/3/5 10/3/5 12/5/5
f 4/3/6 2/2/6 8/2/6 10/3/6
f 2/2/7 1/1/7 7/1/7 8/2/7
f 7/1/8 9/4/8 10/3/8 8/2/8
f 9/4/7 11/6/7 12/5/7 10/3/7
f 6/5/8 12/5/8 11/6/8 5/6/8
