# Blender 5.2.0 LTS
# www.blender.org
o Cylinder.001
v 0.015825 0.755930 -0.895702
v 0.015825 0.872237 -0.895702
v 0.799438 0.755930 -0.443282
v 0.799438 0.872237 -0.443282
v 0.799438 0.755930 0.461556
v 0.799438 0.872237 0.461556
v 0.015825 0.755930 0.913975
v 0.015825 0.872237 0.913975
v -0.767788 0.755930 0.461556
v -0.767788 0.872237 0.461556
v 0.015825 0.760569 -0.823525
v 0.015825 0.867598 -0.823525
v 0.736932 0.760569 -0.407194
v 0.736932 0.867598 -0.407194
v 0.736932 0.760569 0.425468
v 0.736932 0.867598 0.425468
v 0.015825 0.760569 0.841799
v 0.015825 0.867598 0.841799
v -0.705281 0.760569 0.425468
v -0.705281 0.867598 0.425468
v 0.459116 0.445871 0.191347
v 0.459116 0.374756 0.191347
v 0.459116 0.445871 -0.301933
v 0.459116 0.374756 -0.301933
v 0.031923 0.445871 -0.548573
v 0.031923 0.374756 -0.548573
v -0.395269 0.374756 -0.301933
v -0.395269 0.445871 -0.301933
v 0.031923 0.377592 -0.509225
v 0.031923 0.443035 -0.509225
v 0.425040 0.377592 -0.282259
v 0.425040 0.443035 -0.282259
v 0.425040 0.377592 0.171673
v 0.425040 0.443035 0.171673
v -0.361193 0.377592 -0.282259
v -0.361193 0.443035 -0.282259
v -0.000000 0.038296 -0.125377
v -0.000000 0.045283 -0.125377
v 0.108579 0.038296 -0.062688
v 0.108579 0.045283 -0.062688
v 0.108579 0.038296 0.062688
v 0.108579 0.045283 0.062688
v -0.000000 0.038296 0.125377
v -0.000000 0.045283 0.125377
v -0.108579 0.038296 0.062688
v -0.108579 0.045283 0.062688
v -0.108579 0.038296 -0.062688
v -0.108579 0.045283 -0.062688
v -0.000000 0.038575 -0.115376
v -0.000000 0.045005 -0.115376
v 0.099918 0.038575 -0.057688
v 0.099918 0.045005 -0.057688
v 0.099918 0.038575 0.057688
v 0.099918 0.045005 0.057688
v -0.000000 0.038575 0.115376
v -0.000000 0.045005 0.115376
v -0.099918 0.038575 0.057688
v -0.099918 0.045005 0.057688
v -0.099918 0.038575 -0.057688
v -0.099918 0.045005 -0.057688
vn 0.5000 -0.0000 -0.8660
vn 1.0000 -0.0000 -0.0000
vn 0.5000 -0.0000 0.8660
vn -0.5000 -0.0000 0.8660
vn 0.0370 -0.9973 -0.0641
vn -0.0370 -0.9973 0.0641
vn -0.0370 -0.9973 -0.0641
vn -0.0740 -0.9973 -0.0000
vn 0.0370 0.9973 -0.0641
vn -0.0370 0.9973 0.0641
vn -0.0370 0.9973 -0.0641
vn -0.0740 0.9973 -0.0000
vn -1.0000 -0.0000 -0.0000
vn -0.5000 -0.0000 -0.8660
vn 0.0415 0.9966 0.0718
vn -0.0415 -0.9966 0.0718
vn -0.0830 -0.9966 -0.0000
vn -0.0415 0.9966 0.0718
vn -0.0829 0.9966 -0.0000
vn 0.0415 -0.9966 0.0718
vn 0.0322 -0.9995 -0.0000
vn 0.0161 -0.9995 -0.0279
vn 0.0161 0.9995 0.0279
vn -0.0161 -0.9995 0.0279
vn -0.0161 -0.9995 -0.0279
vn 0.0322 0.9995 -0.0000
vn -0.0322 -0.9995 -0.0000
vn 0.0161 0.9995 -0.0279
vn -0.0161 0.9995 0.0279
vn -0.0161 0.9995 -0.0279
vn -0.0322 0.9995 -0.0000
vn 0.0161 -0.9995 0.0279
vt 1.000000 0.500000
vt 1.000000 1.000000
vt 0.833333 1.000000
vt 0.833333 0.500000
vt 0.666667 1.000000
vt 0.666667 0.500000
vt 0.500000 1.000000
vt 0.500000 0.500000
vt 0.333333 1.000000
vt 0.333333 0.500000
vt -0.000000 0.500000
vt -0.000000 1.000000
vt 0.166667 0.500000
vt 0.166667 1.000000
s 0
f 1/1/1 2/2/1 4/3/1 3/4/1
f 3/4/2 4/3/2 6/5/2 5/6/2
f 5/6/3 6/5/3 8/7/3 7/8/3
f 7/8/4 8/7/4 10/9/4 9/10/4
f 7/8/5 9/10/5 19/10/5 17/8/5
f 1/1/6 3/4/6 13/4/6 11/1/6
f 5/6/7 7/8/7 17/8/7 15/6/7
f 3/4/8 5/6/8 15/6/8 13/4/8
f 10/9/9 8/7/9 18/7/9 20/9/9
f 4/3/10 2/2/10 12/2/10 14/3/10
f 8/7/11 6/5/11 16/5/11 18/7/11
f 6/5/12 4/3/12 14/3/12 16/5/12
f 2/2/13 1/1/13 11/11/13 12/2/13
f 11/11/4 13/4/4 14/3/4 12/12/4
f 13/4/13 15/6/13 16/5/13 14/3/13
f 15/6/14 17/8/14 18/7/14 16/5/14
f 17/8/1 19/10/1 20/9/1 18/7/1
f 10/9/14 20/9/14 19/10/14 9/10/14
f 27/13/14 28/14/14 25/12/14 26/11/14
f 24/4/2 23/3/2 21/5/2 22/6/2
f 26/1/1 25/2/1 23/3/1 24/4/1
f 25/12/15 28/14/15 36/14/15 30/12/15
f 26/1/16 24/4/16 31/4/16 29/1/16
f 24/4/17 22/6/17 33/6/17 31/4/17
f 23/3/18 25/2/18 30/2/18 32/3/18
f 21/5/19 23/3/19 32/3/19 34/5/19
f 27/13/20 26/11/20 29/11/20 35/13/20
f 35/13/3 29/11/3 30/12/3 36/14/3
f 29/11/4 31/4/4 32/3/4 30/12/4
f 31/4/13 33/6/13 34/5/13 32/3/13
f 21/5/4 34/5/4 33/6/4 22/6/4
f 28/14/4 27/13/4 35/13/4 36/14/4
f 37/1/1 38/2/1 40/3/1 39/4/1
f 39/4/2 40/3/2 42/5/2 41/6/2
f 41/6/3 42/5/3 44/7/3 43/8/3
f 43/8/4 44/7/4 46/9/4 45/10/4
f 45/10/13 46/9/13 48/14/13 47/13/13
f 47/13/14 48/14/14 38/12/14 37/11/14
f 45/10/21 47/13/21 59/13/21 57/10/21
f 43/8/22 45/10/22 57/10/22 55/8/22
f 38/12/23 48/14/23 60/14/23 50/12/23
f 37/1/24 39/4/24 51/4/24 49/1/24
f 41/6/25 43/8/25 55/8/25 53/6/25
f 48/14/26 46/9/26 58/9/26 60/14/26
f 39/4/27 41/6/27 53/6/27 51/4/27
f 46/9/28 44/7/28 56/7/28 58/9/28
f 40/3/29 38/2/29 50/2/29 52/3/29
f 44/7/30 42/5/30 54/5/30 56/7/30
f 42/5/31 40/3/31 52/3/31 54/5/31
f 47/13/32 37/11/32 49/11/32 59/13/32
f 59/13/3 49/11/3 50/12/3 60/14/3
f 49/11/4 51/4/4 52/3/4 50/12/4
f 51/4/13 53/6/13 54/5/13 52/3/13
f 53/6/14 55/8/14 56/7/14 54/5/14
f 55/8/1 57/10/1 58/9/1 56/7/1
f 57/10/2 59/13/2 60/14/2 58/9/2
