# Blender 5.2.0 LTS
# www.blender.org
o Cylinder.003
v -0.000000 0.598136 0.646853
v -0.000000 0.562086 0.646853
v 0.560191 0.598136 0.323426
v 0.560191 0.562086 0.323426
v 0.560191 0.598136 -0.323426
v 0.560191 0.562086 -0.323426
v -0.000000 0.598136 -0.646853
v -0.000000 0.562086 -0.646853
v -0.560191 0.562086 0.323426
v -0.560191 0.598136 0.323426
v -0.560191 0.562086 -0.323426
v -0.560191 0.598136 -0.323426
v -0.000000 0.563524 -0.595255
v -0.000000 0.596698 -0.595255
v 0.515506 0.563524 -0.297628
v 0.515506 0.596698 -0.297628
v 0.515506 0.563524 0.297628
v 0.515506 0.596698 0.297628
v -0.000000 0.563524 0.595255
v -0.000000 0.596698 0.595255
v -0.515506 0.563524 0.297628
v -0.515506 0.596698 0.297628
v -0.515506 0.563524 -0.297628
v -0.515506 0.596698 -0.297628
v -0.000000 0.206433 -0.199486
v -0.000000 0.217551 -0.199486
v 0.172760 0.206433 -0.099743
v 0.172760 0.217551 -0.099743
v 0.172760 0.206433 0.099743
v 0.172760 0.217551 0.099743
v -0.000000 0.206433 0.199486
v -0.000000 0.217551 0.199486
v -0.172760 0.206433 0.099743
v -0.172760 0.217551 0.099743
v -0.172760 0.206433 -0.099743
v -0.172760 0.217551 -0.099743
v -0.000000 0.206877 -0.183573
v -0.000000 0.217107 -0.183573
v 0.158979 0.206877 -0.091787
v 0.158979 0.217107 -0.091787
v 0.158979 0.206877 0.091787
v 0.158979 0.217107 0.091787
v -0.000000 0.206877 0.183573
v -0.000000 0.217107 0.183573
v -0.158979 0.206877 0.091787
v -0.158979 0.217107 0.091787
v -0.158979 0.206877 -0.091787
v -0.158979 0.217107 -0.091787
vn 0.0161 -0.9995 -0.0279
vn 0.0322 -0.9995 -0.0000
vn -0.5000 -0.0000 -0.8660
vn -1.0000 -0.0000 -0.0000
vn -0.5000 -0.0000 0.8660
vn 0.5000 -0.0000 0.8660
vn 1.0000 -0.0000 -0.0000
vn 0.5000 -0.0000 -0.8660
vn 0.0161 0.9995 0.0279
vn -0.0161 -0.9995 0.0279
vn -0.0161 -0.9995 -0.0279
vn 0.0322 0.9995 -0.0000
vn -0.0322 -0.9995 -0.0000
vn 0.0161 0.9995 -0.0279
vn -0.0161 0.9995 0.0279
vn -0.0161 0.9995 -0.0279
vn -0.0322 0.9995 -0.0000
vn 0.0161 -0.9995 0.0279
vt 0.500000 0.500000
vt 0.333333 0.500000
vt 0.166667 0.500000
vt 0.166667 1.000000
vt -0.000000 1.000000
vt -0.000000 0.500000
vt 0.333333 1.000000
vt 0.500000 1.000000
vt 0.666667 0.500000
vt 0.666667 1.000000
vt 0.833333 0.500000
vt 0.833333 1.000000
vt 1.000000 0.500000
vt 1.000000 1.000000
s 0
f 2/1/1 9/2/1 21/2/1 19/1/1
f 9/2/2 11/3/2 23/3/2 21/2/2
f 11/3/3 12/4/3 7/5/3 8/6/3
f 9/2/4 10/7/4 12/4/4 11/3/4
f 2/1/5 1/8/5 10/7/5 9/2/5
f 4/9/6 3/10/6 1/8/6 2/1/6
f 6/11/7 5/12/7 3/10/7 4/9/7
f 8/13/8 7/14/8 5/12/8 6/11/8
f 7/5/9 12/4/9 24/4/9 14/5/9
f 8/13/10 6/11/10 15/11/10 13/13/10
f 4/9/11 2/1/11 19/1/11 17/9/11
f 12/4/12 10/7/12 22/7/12 24/4/12
f 6/11/13 4/9/13 17/9/13 15/11/13
f 10/7/14 1/8/14 20/8/14 22/7/14
f 5/12/15 7/14/15 14/14/15 16/12/15
f 1/8/16 3/10/16 18/10/16 20/8/16
f 3/10/17 5/12/17 16/12/17 18/10/17
f 11/3/18 8/6/18 13/6/18 23/3/18
f 23/3/6 13/6/6 14/5/6 24/4/6
f 13/6/5 15/11/5 16/12/5 14/5/5
f 15/11/4 17/9/4 18/10/4 16/12/4
f 17/9/3 19/1/3 20/8/3 18/10/3
f 19/1/8 21/2/8 22/7/8 20/8/8
f 21/2/7 23/3/7 24/4/7 22/7/7
f 25/13/8 26/14/8 28/12/8 27/11/8
f 27/11/7 28/12/7 30/10/7 29/9/7
f 29/9/6 30/10/6 32/8/6 31/1/6
f 31/1/5 32/8/5 34/7/5 33/2/5
f 33/2/4 34/7/4 36/4/4 35/3/4
f 35/3/3 36/4/3 26/5/3 25/6/3
f 33/2/2 35/3/2 47/3/2 45/2/2
f 31/1/1 33/2/1 45/2/1 43/1/1
f 26/5/9 36/4/9 48/4/9 38/5/9
f 25/13/10 27/11/10 39/11/10 37/13/10
f 29/9/11 31/1/11 43/1/11 41/9/11
f 36/4/12 34/7/12 46/7/12 48/4/12
f 27/11/13 29/9/13 41/9/13 39/11/13
f 34/7/14 32/8/14 44/8/14 46/7/14
f 28/12/15 26/14/15 38/14/15 40/12/15
f 32/8/16 30/10/16 42/10/16 44/8/16
f 30/10/17 28/12/17 40/12/17 42/10/17
f 35/3/18 25/6/18 37/6/18 47/3/18
f 47/3/6 37/6/6 38/5/6 48/4/6
f 37/6/5 39/11/5 40/12/5 38/5/5
f 39/11/4 41/9/4 42/10/4 40/12/4
f 41/9/3 43/1/3 44/8/3 42/10/3
f 43/1/8 45/2/8 46/7/8 44/8/8
f 45/2/7 47/3/7 48/4/7 46/7/7
