# Blender 5.2.0 LTS
# www.blender.org
mtllib spiderweb.mtl
o Cylinder.005
v -0.802035 1.310465 8.143202
v -1.596347 1.310465 8.025376
v -5.190989 1.310465 6.325237
v -5.785974 1.310465 5.785974
v -8.182603 1.310465 0.000000
v -8.143202 1.310465 -0.802035
v -3.857252 1.310465 -7.216411
v -3.131347 1.310465 -7.559739
v 1.596347 1.310465 -8.025376
v 2.375284 1.310465 -7.830263
v 7.216411 1.310465 -3.857252
v 7.559739 1.310465 -3.131347
v 6.803586 1.310465 4.546010
v 6.325237 1.310465 5.190989
v 3.857252 1.310465 7.216411
v 3.131347 1.310465 7.559739
v -1.815742 1.310465 2.212487
v -2.023859 1.310465 2.023859
v -2.379807 1.310465 1.590136
v -2.524208 1.310465 1.349217
v -2.862169 1.310465 0.000000
v -2.848387 1.310465 -0.280542
v -2.807172 1.310465 -0.558381
v -2.738925 1.310465 -0.830844
v -2.524208 1.310465 -1.349217
v -2.379807 1.310465 -1.590136
v -1.349217 1.310465 -2.524207
v -1.095305 1.310465 -2.644299
v 0.558382 1.310465 -2.807172
v 0.830844 1.310465 -2.738925
v 1.815741 1.310465 -2.212487
v 2.023860 1.310465 -2.023860
v 2.524208 1.310465 -1.349217
v 2.644299 1.310465 -1.095304
v 2.848387 1.310465 -0.280542
v 2.862169 1.310465 0.000000
v 2.379807 1.310465 1.590136
v 2.212487 1.310465 1.815742
v 0.830844 1.310465 2.738925
v 0.558382 1.310465 2.807173
v -1.700638 0.959223 2.072233
v -1.895562 0.959223 1.895562
v -2.680730 0.959223 0.000000
v -2.667822 0.959223 -0.262758
v -2.629220 0.959223 -0.522985
v -2.565299 0.959223 -0.778175
v -2.364193 0.959223 -1.263688
v -2.228945 0.959223 -1.489334
v -1.263687 0.959223 -2.364193
v -1.025871 0.959223 -2.476671
v 0.522985 0.959223 -2.629220
v 0.778175 0.959223 -2.565299
v 2.364193 0.959223 -1.263688
v 2.476671 0.959223 -1.025871
v 2.667822 0.959223 -0.262758
v 2.680730 0.959223 0.000000
v 2.228945 0.959223 1.489334
v 2.072233 0.959223 1.700638
v 0.778175 0.959223 2.565299
v 0.522985 0.959223 2.629220
v -0.168859 0.959222 1.714453
v -0.336091 0.959222 1.689646
v -1.092900 0.959222 1.331702
v -1.218167 0.959222 1.218167
v -1.722748 0.959222 -0.000000
v -1.714453 0.959222 -0.168859
v -1.689646 0.959222 -0.336092
v -1.648567 0.959222 -0.500087
v -1.519328 0.959222 -0.812098
v -1.432413 0.959222 -0.957108
v -0.812098 0.959222 -1.519328
v -0.659267 0.959222 -1.591611
v 0.336092 0.959222 -1.689645
v 0.500087 0.959222 -1.648567
v 1.092900 0.959222 -1.331702
v 1.218167 0.959222 -1.218167
v 1.519328 0.959222 -0.812098
v 1.591612 0.959222 -0.659267
v 1.714453 0.959222 -0.168859
v 1.722748 0.959222 -0.000000
v 1.432413 0.959222 0.957107
v 1.331702 0.959222 1.092900
v 0.500087 0.959222 1.648567
v 0.336092 0.959222 1.689646
v -0.128292 0.649723 1.302575
v -0.255349 0.649723 1.283728
v -0.830344 0.649723 1.011776
v -0.925516 0.649723 0.925516
v -1.308878 0.649723 0.000000
v -1.302575 0.649723 -0.128292
v -1.283728 0.649723 -0.255349
v -1.252518 0.649723 -0.379947
v -1.154327 0.649723 -0.617001
v -1.088292 0.649723 -0.727174
v -0.617001 0.649723 -1.154327
v -0.500886 0.649723 -1.209245
v 0.255349 0.649723 -1.283728
v 0.379947 0.649723 -1.252518
v 0.830344 0.649723 -1.011776
v 0.925517 0.649723 -0.925517
v 1.154327 0.649723 -0.617001
v 1.209245 0.649723 -0.500886
v 1.088292 0.649723 0.727173
v 1.011776 0.649723 0.830344
v 0.617001 0.649723 1.154327
v 0.500886 0.649723 1.209245
v 0.379947 0.649723 1.252518
v 0.255349 0.649723 1.283728
v -0.113826 -4.128656 1.155700
v -0.226557 -4.128656 1.138978
v -0.736716 -4.128656 0.897691
v -0.821157 -4.128656 0.821157
v -1.161292 -4.128656 0.000000
v -1.155700 -4.128656 -0.113827
v -1.138978 -4.128656 -0.226557
v -1.111287 -4.128656 -0.337105
v -1.024168 -4.128656 -0.547429
v -0.965579 -4.128656 -0.645179
v -0.547429 -4.128656 -1.024168
v -0.444407 -4.128656 -1.072894
v 0.226557 -4.128656 -1.138978
v 0.337105 -4.128656 -1.111287
v 0.736716 -4.128656 -0.897691
v 0.821158 -4.128656 -0.821158
v 1.024168 -4.128656 -0.547429
v 1.072894 -4.128656 -0.444407
v 0.965579 -4.128656 0.645179
v 0.897691 -4.128656 0.736716
v 0.547429 -4.128656 1.024168
v 0.444407 -4.128656 1.072894
v 0.337105 -4.128656 1.111287
v 0.226557 -4.128656 1.138978
v 1.989174 1.310465 -6.557428
v 1.603064 1.310465 -5.284594
v 1.216954 1.310465 -4.011759
v 0.817873 1.310465 -4.111723
v 1.077364 1.310465 -5.416275
v 1.336855 1.310465 -6.720826
v -2.964387 1.310465 2.964387
v -3.904916 1.310465 3.904916
v -4.845445 1.310465 4.845445
v 1.077364 1.310465 5.416275
v 0.817873 1.310465 4.111723
v 1.216954 1.310465 4.011760
v 1.603064 1.310465 5.284594
v -4.591696 1.310465 3.068073
v -3.485751 1.310465 2.329104
v -4.870309 1.310465 2.603235
v -3.697258 1.310465 1.976226
v 4.347177 1.310465 -5.297050
v 3.503365 1.310465 -4.268862
v 2.659553 1.310465 -3.240674
v 4.845445 1.310465 -4.845445
v 3.904917 1.310465 -3.904917
v 2.964388 1.310465 -2.964388
v -6.852495 1.310465 0.000000
v -5.522387 1.310465 0.000000
v -4.192278 1.310465 0.000000
v 6.043360 1.310465 -3.230244
v 4.870309 1.310465 -2.603235
v 3.697258 1.310465 -1.976226
v -6.819498 1.310465 -0.671662
v -5.495794 1.310465 -0.541289
v -4.172091 1.310465 -0.410915
v 6.330879 1.310465 -2.622336
v 5.102019 1.310465 -2.113325
v 3.873159 1.310465 -1.604315
v -6.720826 1.310465 -1.336855
v -5.416275 1.310465 -1.077364
v -4.111723 1.310465 -0.817873
v -6.557428 1.310465 -1.989174
v -5.284594 1.310465 -1.603064
v -4.011759 1.310465 -1.216954
v 6.819498 1.310465 -0.671662
v 5.495794 1.310465 -0.541289
v 4.172091 1.310465 -0.410915
v 6.852495 1.310465 0.000000
v 5.522387 1.310465 0.000000
v 4.192278 1.310465 0.000000
v -3.230243 1.310465 -6.043360
v -2.603235 1.310465 -4.870309
v -1.976226 1.310465 -3.697258
v -0.671662 1.310465 6.819498
v -0.541288 1.310465 5.495794
v 5.697641 1.310465 3.807042
v 4.591696 1.310465 3.068073
v 3.485751 1.310465 2.329104
v -2.622336 1.310465 -6.330879
v -2.113326 1.310465 -5.102019
v -1.604315 1.310465 -3.873159
v -1.336855 1.310465 6.720826
v -1.077364 1.310465 5.416275
v 5.297050 1.310465 4.347177
v 4.268862 1.310465 3.503365
v 3.240674 1.310465 2.659554
v 3.230244 1.310465 6.043360
v 2.603235 1.310465 4.870310
v 1.976226 1.310465 3.697259
v -4.347177 1.310465 5.297050
v -3.503365 1.310465 4.268862
v -2.659554 1.310465 3.240674
v 2.622336 1.310465 6.330879
v 2.113325 1.310465 5.102019
v 1.604315 1.310465 3.873159
vn -0.0000 1.0000 -0.0000
vn 0.3800 0.4585 0.8034
vn -0.7138 0.4585 -0.5294
vn 0.5968 0.4585 -0.6585
vn -0.2159 0.4585 0.8621
vn -0.2159 0.4585 -0.8621
vn 0.8876 0.4585 0.0436
vn -0.8034 0.4585 0.3800
vn 0.8621 0.4585 0.2159
vn -0.8876 0.4585 0.0436
vn 0.7623 0.4585 0.4569
vn 0.4025 0.8005 -0.4441
vn -0.1456 0.8005 0.5814
vn -0.1456 0.8005 -0.5814
vn -0.4025 0.8005 0.4441
vn 0.5986 0.8005 0.0294
vn -0.5418 0.8005 0.2563
vn 0.5814 0.8005 0.1456
vn 0.5141 0.8005 0.3081
vn 0.2563 0.8005 0.5418
vn 0.0879 0.8005 -0.5929
vn -0.4814 0.8005 -0.3570
vn -0.6712 0.0308 0.7406
vn 0.9983 0.0308 0.0490
vn -0.9036 0.0308 0.4274
vn 0.9696 0.0308 0.2429
vn 0.8573 0.0308 0.5139
vn 0.4274 0.0308 0.9036
vn 0.1467 0.0308 -0.9887
vn -0.8028 0.0308 -0.5954
vn -0.4274 0.0308 -0.9036
vn 0.6712 0.0308 -0.7406
vn -0.2429 0.0308 0.9696
vn -0.2429 0.0308 -0.9696
vt 2.032718 1.021609
vt 2.054969 1.021609
vt 2.054969 1.083675
vt 2.032718 1.083675
vt 0.647942 1.030220
vt 0.628329 1.030220
vt 0.628329 0.976764
vt 0.647942 0.976764
vt 0.748895 1.025707
vt 0.766981 1.025707
vt 0.766981 1.083675
vt 0.748895 1.083675
vt 1.879747 1.031421
vt 1.902994 1.031421
vt 1.902994 1.083675
vt 1.879747 1.083675
vt 1.107247 1.032295
vt 1.134126 1.032295
vt 1.134126 1.083675
vt 1.107247 1.083675
vt 1.755732 0.929480
vt 1.728862 0.929480
vt 1.728862 0.878082
vt 1.755732 0.878082
vt 1.541239 1.023569
vt 1.561448 1.023569
vt 1.561448 1.083675
vt 1.541239 1.083675
vt 1.097247 0.972667
vt 1.075361 0.972667
vt 1.075361 0.917162
vt 1.097247 0.917162
vt 1.960872 1.030226
vt 1.980487 1.030226
vt 1.980487 1.083675
vt 1.960872 1.083675
vt 0.716732 0.911863
vt 0.692618 0.911863
vt 0.692618 0.854592
vt 0.716732 0.854592
vt 0.618329 0.897384
vt 0.596089 0.897384
vt 0.596089 0.835286
vt 0.618329 0.835286
vt 1.778254 1.083675
vt 1.765732 1.083675
vt 1.765732 1.067209
vt 1.778254 1.067209
vt 0.831745 1.083675
vt 0.819160 1.083675
vt 0.819160 1.067290
vt 0.831745 1.067290
vt 0.789511 1.083675
vt 0.776981 1.083675
vt 0.776981 1.067219
vt 0.789511 1.067219
vt 1.800086 1.083675
vt 1.788254 1.083675
vt 1.788254 1.066247
vt 1.800086 1.066247
vt 0.738895 1.083675
vt 0.726732 1.083675
vt 0.726732 1.066722
vt 0.738895 1.066722
vt 1.065361 1.083675
vt 1.054001 1.083675
vt 1.054001 1.065524
vt 1.065361 1.065524
vt 1.584012 1.083675
vt 1.571449 1.083675
vt 1.571449 1.067262
vt 1.584012 1.067262
vt 1.307960 1.083675
vt 1.296579 1.083675
vt 1.296579 1.065558
vt 1.307960 1.065558
vt 1.044001 1.083675
vt 1.031860 1.083675
vt 1.031860 1.066691
vt 1.044001 1.066691
vt 1.638191 1.083675
vt 1.626176 1.083675
vt 1.626176 1.066513
vt 1.638191 1.066513
vt 0.851664 1.083675
vt 0.841745 1.083675
vt 0.841745 1.043694
vt 0.851664 1.043694
vt 1.689289 1.027273
vt 1.698933 1.027273
vt 1.698933 1.063911
vt 1.689289 1.063911
vt 0.809160 1.083675
vt 0.799511 1.083675
vt 0.799511 1.047056
vt 0.809160 1.047056
vt 0.992298 1.027262
vt 1.001940 1.027262
vt 1.001940 1.063907
vt 0.992298 1.063907
vt 1.327598 1.083675
vt 1.317960 1.083675
vt 1.317960 1.047016
vt 1.327598 1.047016
vt 1.245921 1.027270
vt 1.255564 1.027270
vt 1.255564 1.063910
vt 1.245921 1.063910
vt 1.021860 1.083675
vt 1.011940 1.083675
vt 1.011940 1.043700
vt 1.021860 1.043700
vt 1.423782 1.027291
vt 1.433429 1.027291
vt 1.433429 1.063917
vt 1.423782 1.063917
vt 1.708933 1.043736
vt 1.718862 1.043736
vt 1.718862 1.083675
vt 1.708933 1.083675
vt 0.934795 1.083675
vt 0.925147 1.083675
vt 0.925147 1.047052
vt 0.934795 1.047052
vt 0.951605 1.083675
vt 0.944795 1.083675
vt 0.944795 1.065641
vt 0.951605 1.065641
vt 1.698933 1.083675
vt 1.689289 1.083675
vt 0.799511 1.027301
vt 0.809160 1.027301
vt 1.523994 1.063336
vt 1.531238 1.063336
vt 1.531238 1.083675
vt 1.523994 1.083675
vt 1.001940 1.083675
vt 0.992298 1.083675
vt 1.317960 1.027240
vt 1.327598 1.027240
vt 1.255564 1.083675
vt 1.245921 1.083675
vt 1.433429 1.083675
vt 1.423782 1.083675
vt 1.616176 1.083675
vt 1.609356 1.083675
vt 1.609356 1.065667
vt 1.616176 1.065667
vt 0.868817 1.083675
vt 0.861664 1.083675
vt 0.861664 1.063076
vt 0.868817 1.063076
vt 0.925147 1.027296
vt 0.934795 1.027296
vt 1.413782 1.083675
vt 1.408229 1.083675
vt 1.408229 0.883512
vt 1.413782 0.883512
vt 0.982298 1.083675
vt 0.977172 1.083675
vt 0.977172 0.866843
vt 0.982298 0.866843
vt 1.271153 1.083675
vt 1.265564 1.083675
vt 1.265564 0.884804
vt 1.271153 0.884804
vt 1.149269 1.083675
vt 1.144126 1.083675
vt 1.144126 0.867554
vt 1.149269 0.867554
vt 1.286579 1.083675
vt 1.281153 1.083675
vt 1.281153 0.878804
vt 1.286579 0.878804
vt 1.609356 0.899081
vt 1.616176 0.899081
vt 0.884231 1.083675
vt 0.878817 1.083675
vt 0.878817 0.878366
vt 0.884231 0.878366
vt 0.967172 1.083675
vt 0.961605 1.083675
vt 0.961605 0.884022
vt 0.967172 0.884022
vt 0.915147 1.083675
vt 0.909631 1.083675
vt 0.909631 0.882170
vt 0.915147 0.882170
vt 0.944795 0.898814
vt 0.951605 0.898814
vt 1.599356 1.083675
vt 1.594012 1.083675
vt 1.594012 0.875716
vt 1.599356 0.875716
vt 0.899631 1.083675
vt 0.894231 1.083675
vt 0.894231 0.877860
vt 0.899631 0.877860
vt 0.618329 1.083675
vt 0.596089 1.083675
vt 0.596089 1.021578
vt 0.618329 1.021578
vt 0.596089 0.959481
vt 0.618329 0.959481
vt 0.538669 1.083675
vt 0.510765 1.083675
vt 0.510765 1.028221
vt 0.538669 1.028221
vt 0.510765 0.972767
vt 0.538669 0.972767
vt 0.510765 0.917313
vt 0.538669 0.917313
vt 0.716732 1.083675
vt 0.692618 1.083675
vt 0.692618 1.026404
vt 0.716732 1.026404
vt 0.692618 0.969134
vt 0.716732 0.969134
vt 0.452289 1.083675
vt 0.422178 1.083675
vt 0.422178 1.026762
vt 0.452289 1.026762
vt 0.422178 0.969848
vt 0.452289 0.969848
vt 2.146002 1.028221
vt 2.179904 1.028221
vt 2.179904 1.083675
vt 2.146002 1.083675
vt 1.960872 0.976776
vt 1.980487 0.976776
vt 1.097247 1.083675
vt 1.075361 1.083675
vt 1.075361 1.028171
vt 1.097247 1.028171
vt 1.541239 0.903355
vt 1.561448 0.903355
vt 1.561448 0.963462
vt 1.541239 0.963462
vt 1.755732 1.083675
vt 1.728862 1.083675
vt 1.728862 1.032277
vt 1.755732 1.032277
vt 1.728862 0.980878
vt 1.755732 0.980878
vt 1.107247 0.878154
vt 1.134126 0.878154
vt 1.134126 0.929535
vt 1.107247 0.929534
vt 1.134126 0.980915
vt 1.107247 0.980915
vt 1.879747 0.926913
vt 1.902994 0.926913
vt 1.902994 0.979167
vt 1.879747 0.979167
vt 0.748895 0.967739
vt 0.766981 0.967739
vt 0.647942 1.083675
vt 0.628329 1.083675
vt 2.032718 0.835409
vt 2.054969 0.835409
vt 2.054969 0.897476
vt 2.032718 0.897476
vt 2.054969 0.959542
vt 2.032718 0.959542
s 0
f 136/1/1 29/4/1 30/3/1 135/2/1
f 144/5/1 39/8/1 40/7/1 143/6/1
f 147/9/1 19/12/1 20/11/1 149/10/1
f 152/13/1 31/16/1 32/15/1 155/14/1
f 158/17/1 21/20/1 22/19/1 164/18/1
f 161/21/1 33/24/1 34/23/1 167/22/1
f 170/25/1 23/28/1 24/27/1 173/26/1
f 176/29/1 35/32/1 36/31/1 179/30/1
f 182/33/1 27/36/1 28/35/1 190/34/1
f 187/37/1 37/40/1 38/39/1 195/38/1
f 201/41/1 17/44/1 18/43/1 139/42/1
f 27/45/2 49/48/2 50/47/2 28/46/2
f 37/49/3 57/52/3 58/51/3 38/50/3
f 17/53/4 41/56/4 42/55/4 18/54/4
f 29/57/5 51/60/5 52/59/5 30/58/5
f 39/61/6 59/64/6 60/63/6 40/62/6
f 21/65/7 43/68/7 44/67/7 22/66/7
f 33/69/8 53/72/8 54/71/8 34/70/8
f 23/73/9 45/76/9 46/75/9 24/74/9
f 35/77/10 55/80/10 56/79/10 36/78/10
f 25/81/11 47/84/11 48/83/11 26/82/11
f 41/85/1 63/88/1 64/87/1 42/86/1
f 51/89/1 73/92/1 74/91/1 52/90/1
f 59/93/1 83/96/1 84/95/1 60/94/1
f 43/97/1 65/100/1 66/99/1 44/98/1
f 53/101/1 77/104/1 78/103/1 54/102/1
f 45/105/1 67/108/1 68/107/1 46/106/1
f 55/109/1 79/112/1 80/111/1 56/110/1
f 47/113/1 69/116/1 70/115/1 48/114/1
f 49/117/1 71/120/1 72/119/1 50/118/1
f 57/121/1 81/124/1 82/123/1 58/122/1
f 63/125/12 87/128/12 88/127/12 64/126/12
f 73/92/13 97/130/13 98/129/13 74/91/13
f 83/96/14 107/132/14 108/131/14 84/95/14
f 75/133/15 99/136/15 100/135/15 76/134/15
f 65/100/16 89/138/16 90/137/16 66/99/16
f 77/104/17 101/140/17 102/139/17 78/103/17
f 67/108/18 91/142/18 92/141/18 68/107/18
f 69/116/19 93/144/19 94/143/19 70/115/19
f 71/145/20 95/148/20 96/147/20 72/146/20
f 61/149/21 85/152/21 86/151/21 62/150/21
f 81/124/22 103/154/22 104/153/22 82/123/22
f 99/155/23 123/158/23 124/157/23 100/156/23
f 89/159/24 113/162/24 114/161/24 90/160/24
f 101/163/25 125/166/25 126/165/25 102/164/25
f 91/167/26 115/170/26 116/169/26 92/168/26
f 93/171/27 117/174/27 118/173/27 94/172/27
f 95/148/28 119/176/28 120/175/28 96/147/28
f 85/177/29 109/180/29 110/179/29 86/178/29
f 103/181/30 127/184/30 128/183/30 104/182/30
f 105/185/31 129/188/31 130/187/31 106/186/31
f 87/128/32 111/190/32 112/189/32 88/127/32
f 97/191/33 121/194/33 122/193/33 98/192/33
f 107/195/34 131/198/34 132/197/34 108/196/34
f 3/199/1 199/202/1 141/201/1 4/200/1
f 199/202/1 200/204/1 140/203/1 141/201/1
f 200/204/1 201/41/1 139/42/1 140/203/1
f 15/205/1 196/208/1 202/207/1 16/206/1
f 196/208/1 197/210/1 203/209/1 202/207/1
f 197/210/1 198/212/1 204/211/1 203/209/1
f 13/213/1 185/216/1 193/215/1 14/214/1
f 185/216/1 186/218/1 194/217/1 193/215/1
f 186/218/1 187/37/1 195/38/1 194/217/1
f 1/219/1 183/222/1 191/221/1 2/220/1
f 183/222/1 184/224/1 192/223/1 191/221/1
f 7/225/1 180/228/1 188/227/1 8/226/1
f 181/229/1 182/33/1 190/34/1 189/230/1
f 174/231/1 175/234/1 178/233/1 177/232/1
f 175/234/1 176/29/1 179/30/1 178/233/1
f 168/235/1 169/238/1 172/237/1 171/236/1
f 169/238/1 170/25/1 173/26/1 172/237/1
f 11/239/1 159/242/1 165/241/1 12/240/1
f 159/242/1 160/244/1 166/243/1 165/241/1
f 160/244/1 161/21/1 167/22/1 166/243/1
f 5/245/1 156/248/1 162/247/1 6/246/1
f 156/248/1 157/250/1 163/249/1 162/247/1
f 157/250/1 158/17/1 164/18/1 163/249/1
f 150/251/1 151/254/1 154/253/1 153/252/1
f 151/254/1 152/13/1 155/14/1 154/253/1
f 146/255/1 147/9/1 149/10/1 148/256/1
f 145/257/1 144/5/1 143/6/1 142/258/1
f 9/259/1 138/262/1 133/261/1 10/260/1
f 138/262/1 137/264/1 134/263/1 133/261/1
f 137/264/1 136/1/1 135/2/1 134/263/1
