# Blender 5.1.2
# www.blender.org
mtllib rude_buster.mtl
o Plane
v 1.000000 0.000000 1.000000
v 0.000000 0.000000 -0.246869
v 0.000000 0.000000 0.463875
v 0.500000 0.000000 0.120663
v 0.000000 0.000000 0.241173
v 0.750000 0.000000 0.515516
v 0.712658 0.000000 1.096465
v 0.767533 0.000000 0.631881
v 0.669666 0.000000 0.846563
v 0.814850 0.000000 0.892762
v 0.553982 0.000000 1.101129
v 0.524922 0.000000 0.500867
v 0.533756 0.000000 0.754476
v 0.619588 0.000000 0.764079
v 0.873747 0.000000 1.372520
v 0.873747 0.000000 0.790140
v 0.830250 0.000000 0.996904
v 0.917244 0.000000 1.000798
v 0.423294 0.000000 0.734293
v 0.423294 0.000000 0.413365
v 0.379797 0.000000 0.536038
v 0.466791 0.000000 0.558084
v 0.173613 0.000324 0.712542
v 0.222999 0.000000 0.310940
v 0.172060 -0.000000 0.501442
v 0.271534 -0.000000 0.558907
v 0.191593 0.002544 0.608124
v 0.235519 -0.002544 0.632658
v 0.413480 0.210622 0.577868
v 0.000000 0.210622 0.069674
v 0.000000 0.210622 0.373313
v 0.168849 0.210622 0.203335
v 0.000000 0.210622 0.269072
v 0.291165 0.210622 0.364855
v 0.863434 0.003392 1.375579
v 0.780809 0.062836 0.811938
v 0.847605 0.075140 1.007422
v 0.866370 0.075140 1.008486
v 0.713608 0.009197 1.096722
v 0.725739 0.051242 0.658753
v 0.693318 0.087423 0.852991
v 0.761837 0.087423 0.885691
v 0.553982 0.004598 1.101132
v 0.524922 0.108210 0.503562
v 0.533756 0.108210 0.757288
v 0.619588 0.108210 0.766380
v 0.423294 0.001929 0.734294
v 0.423294 0.055424 0.414180
v 0.379797 0.055424 0.537029
v 0.466791 0.055424 0.558932
v 0.175827 0.002820 0.710257
v 0.230610 0.169696 0.322233
v 0.179671 0.119280 0.510609
v 0.279145 0.119280 0.567870
v 0.199204 0.078654 0.614093
v 0.243130 0.073567 0.638411
v -1.000000 0.000000 1.000000
v -0.500000 0.000000 0.120663
v -0.750000 0.000000 0.515516
v -0.712658 0.000000 1.096465
v -0.767533 0.000000 0.631881
v -0.669666 0.000000 0.846563
v -0.814850 0.000000 0.892762
v -0.553982 0.000000 1.101129
v -0.524922 0.000000 0.500867
v -0.533756 0.000000 0.754476
v -0.619588 0.000000 0.764079
v -0.873747 0.000000 1.372520
v -0.873747 0.000000 0.790140
v -0.830250 0.000000 0.996904
v -0.917244 0.000000 1.000798
v -0.423294 0.000000 0.734293
v -0.423294 0.000000 0.413365
v -0.379797 0.000000 0.536038
v -0.466791 0.000000 0.558084
v -0.173613 0.000324 0.712542
v -0.222999 0.000000 0.310940
v -0.172060 -0.000000 0.501442
v -0.271534 -0.000000 0.558907
v -0.191593 0.002544 0.608124
v -0.235519 -0.002544 0.632658
v -0.413480 0.210622 0.577868
v -0.168849 0.210622 0.203335
v -0.291165 0.210622 0.364855
v -0.863434 0.003392 1.375579
v -0.780809 0.062836 0.811938
v -0.847605 0.075140 1.007422
v -0.866370 0.075140 1.008486
v -0.713608 0.009197 1.096722
v -0.725739 0.051242 0.658753
v -0.693318 0.087423 0.852991
v -0.761837 0.087423 0.885691
v -0.553982 0.004598 1.101132
v -0.524922 0.108210 0.503562
v -0.533756 0.108210 0.757288
v -0.619588 0.108210 0.766380
v -0.423294 0.001929 0.734294
v -0.423294 0.055424 0.414180
v -0.379797 0.055424 0.537029
v -0.466791 0.055424 0.558932
v -0.175827 0.002820 0.710257
v -0.230610 0.169696 0.322233
v -0.179671 0.119280 0.510609
v -0.279145 0.119280 0.567870
v -0.199204 0.078654 0.614093
v -0.243130 0.073567 0.638411
vn -0.0000 -1.0000 -0.0000
vn -0.0337 -0.9994 -0.0031
vn -0.0943 -0.9948 -0.0374
vn -0.0000 1.0000 -0.0000
vn 0.3783 0.7759 -0.5049
vn -0.4261 0.3964 0.8132
vn 0.4785 0.8401 -0.2554
vn 0.4677 0.8266 -0.3130
vn -0.0109 0.9814 0.1917
vn 0.0036 0.9979 -0.0641
vn 0.6494 0.7255 -0.2277
vn 0.7913 0.6017 0.1082
vn -0.9935 0.0742 0.0864
vn -0.8686 -0.4911 0.0653
vn -0.1496 0.9378 0.3134
vn 0.0809 0.9822 -0.1695
vn -0.9592 0.2332 0.1599
vn -0.9528 -0.0529 -0.2989
vn 0.8000 0.5726 -0.1793
vn 0.8036 0.4597 0.3781
vn -0.0307 0.9565 0.2900
vn 0.9409 0.0078 -0.3386
vn 0.9816 -0.0039 0.1911
vn -0.9983 -0.0015 0.0583
vn -0.9994 -0.0009 0.0348
vn -0.0693 0.9589 0.2753
vn -0.9426 0.0054 -0.3340
vn 0.9577 0.0043 -0.2878
vn 0.9708 -0.0035 0.2397
vn -0.9768 -0.0037 0.2143
vn -0.2070 0.8841 0.4190
vn -0.1288 0.9661 0.2237
vn -0.2236 0.7910 0.5694
vn -0.9657 0.0686 -0.2505
vn -0.9793 0.0613 0.1931
vn -0.9799 0.1296 -0.1516
vn 0.9798 -0.0378 -0.1965
vn 0.9033 -0.1018 0.4169
vn 0.7822 -0.1247 0.6104
vn 0.0337 -0.9994 -0.0031
vn 0.0943 -0.9948 -0.0374
vn -0.3783 0.7759 -0.5049
vn 0.4261 0.3964 0.8132
vn -0.4785 0.8401 -0.2554
vn -0.4677 0.8266 -0.3130
vn 0.0109 0.9814 0.1917
vn -0.0036 0.9979 -0.0641
vn -0.6494 0.7255 -0.2277
vn -0.7913 0.6017 0.1082
vn 0.9935 0.0742 0.0864
vn 0.8686 -0.4911 0.0653
vn 0.1496 0.9378 0.3134
vn -0.0809 0.9822 -0.1695
vn 0.9592 0.2332 0.1599
vn 0.9528 -0.0529 -0.2989
vn -0.8000 0.5726 -0.1793
vn -0.8036 0.4597 0.3781
vn 0.0307 0.9565 0.2900
vn -0.9409 0.0078 -0.3386
vn -0.9816 -0.0039 0.1911
vn 0.9983 -0.0015 0.0583
vn 0.9994 -0.0009 0.0348
vn 0.0693 0.9589 0.2753
vn 0.9426 0.0054 -0.3340
vn -0.9577 0.0043 -0.2878
vn -0.9708 -0.0035 0.2397
vn 0.9768 -0.0037 0.2143
vn 0.2070 0.8841 0.4190
vn 0.1288 0.9661 0.2237
vn 0.2236 0.7910 0.5694
vn 0.9657 0.0686 -0.2505
vn 0.9793 0.0613 0.1931
vn 0.9799 0.1296 -0.1516
vn -0.9798 -0.0378 -0.1965
vn -0.9033 -0.1018 0.4169
vn -0.7823 -0.1247 0.6104
vt 0.250000 0.500000
vt 0.750000 0.250000
vt 1.000000 0.000000
vt 0.500000 0.000000
vt 0.000000 1.000000
vt 0.500000 0.500000
vt 1.000000 1.000000
vt 1.000000 0.498410
s 0
usemtl Material
f 5/1/1 6/2/1 1/3/1 3/4/1
f 2/5/1 4/6/1 6/2/1 5/1/1
f 7/3/1 9/5/1 10/7/1
f 9/5/1 8/5/1 10/7/1
f 11/3/1 13/5/1 14/7/1
f 13/5/1 12/5/1 14/7/1
f 15/3/1 17/5/1 18/7/1
f 17/5/1 16/5/1 18/7/1
f 19/3/1 21/5/1 22/7/1
f 21/5/1 20/5/1 22/7/1
f 27/6/2 25/5/2 26/7/2 28/8/2
f 25/5/1 24/5/1 26/7/1
f 23/3/3 27/6/3 28/8/3
f 33/1/4 31/4/4 29/3/4 34/2/4
f 30/5/4 33/1/4 34/2/4 32/6/4
f 4/6/5 2/5/5 30/5/5 32/6/5
f 3/4/6 1/3/6 29/3/6 31/4/6
f 1/3/7 6/2/7 34/2/7 29/3/7
f 6/2/8 4/6/8 32/6/8 34/2/8
f 35/3/9 38/7/9 37/5/9
f 37/5/10 38/7/10 36/5/10
f 18/7/11 16/5/11 36/5/11 38/7/11
f 15/3/12 18/7/12 38/7/12 35/3/12
f 17/5/13 15/3/13 35/3/13 37/5/13
f 16/5/14 17/5/14 37/5/14 36/5/14
f 39/3/15 42/7/15 41/5/15
f 41/5/16 42/7/16 40/5/16
f 9/5/17 7/3/17 39/3/17 41/5/17
f 8/5/18 9/5/18 41/5/18 40/5/18
f 10/7/19 8/5/19 40/5/19 42/7/19
f 7/3/20 10/7/20 42/7/20 39/3/20
f 43/3/21 46/7/21 45/5/21
f 45/5/4 46/7/4 44/5/4
f 14/7/22 12/5/22 44/5/22 46/7/22
f 11/3/23 14/7/23 46/7/23 43/3/23
f 13/5/24 11/3/24 43/3/24 45/5/24
f 12/5/25 13/5/25 45/5/25 44/5/25
f 47/3/26 50/7/26 49/5/26
f 49/5/4 50/7/4 48/5/4
f 20/5/27 21/5/27 49/5/27 48/5/27
f 22/7/28 20/5/28 48/5/28 50/7/28
f 19/3/29 22/7/29 50/7/29 47/3/29
f 21/5/30 19/3/30 47/3/30 49/5/30
f 55/6/31 56/8/31 54/7/31 53/5/31
f 53/5/32 54/7/32 52/5/32
f 51/3/33 56/8/33 55/6/33
f 24/5/34 25/5/34 53/5/34 52/5/34
f 25/5/35 27/6/35 55/6/35 53/5/35
f 27/6/36 23/3/36 51/3/36 55/6/36
f 26/7/37 24/5/37 52/5/37 54/7/37
f 28/8/38 26/7/38 54/7/38 56/8/38
f 23/3/39 28/8/39 56/8/39 51/3/39
f 5/1/1 3/4/1 57/3/1 59/2/1
f 2/5/1 5/1/1 59/2/1 58/6/1
f 60/3/1 63/7/1 62/5/1
f 62/5/1 63/7/1 61/5/1
f 64/3/1 67/7/1 66/5/1
f 66/5/1 67/7/1 65/5/1
f 68/3/1 71/7/1 70/5/1
f 70/5/1 71/7/1 69/5/1
f 72/3/1 75/7/1 74/5/1
f 74/5/1 75/7/1 73/5/1
f 80/6/40 81/8/40 79/7/40 78/5/40
f 78/5/1 79/7/1 77/5/1
f 76/3/41 81/8/41 80/6/41
f 33/1/4 84/2/4 82/3/4 31/4/4
f 30/5/4 83/6/4 84/2/4 33/1/4
f 58/6/42 83/6/42 30/5/42 2/5/42
f 3/4/43 31/4/43 82/3/43 57/3/43
f 57/3/44 82/3/44 84/2/44 59/2/44
f 59/2/45 84/2/45 83/6/45 58/6/45
f 85/3/46 87/5/46 88/7/46
f 87/5/47 86/5/47 88/7/47
f 71/7/48 88/7/48 86/5/48 69/5/48
f 68/3/49 85/3/49 88/7/49 71/7/49
f 70/5/50 87/5/50 85/3/50 68/3/50
f 69/5/51 86/5/51 87/5/51 70/5/51
f 89/3/52 91/5/52 92/7/52
f 91/5/53 90/5/53 92/7/53
f 62/5/54 91/5/54 89/3/54 60/3/54
f 61/5/55 90/5/55 91/5/55 62/5/55
f 63/7/56 92/7/56 90/5/56 61/5/56
f 60/3/57 89/3/57 92/7/57 63/7/57
f 93/3/58 95/5/58 96/7/58
f 95/5/4 94/5/4 96/7/4
f 67/7/59 96/7/59 94/5/59 65/5/59
f 64/3/60 93/3/60 96/7/60 67/7/60
f 66/5/61 95/5/61 93/3/61 64/3/61
f 65/5/62 94/5/62 95/5/62 66/5/62
f 97/3/63 99/5/63 100/7/63
f 99/5/4 98/5/4 100/7/4
f 73/5/64 98/5/64 99/5/64 74/5/64
f 75/7/65 100/7/65 98/5/65 73/5/65
f 72/3/66 97/3/66 100/7/66 75/7/66
f 74/5/67 99/5/67 97/3/67 72/3/67
f 105/6/68 103/5/68 104/7/68 106/8/68
f 103/5/69 102/5/69 104/7/69
f 101/3/70 105/6/70 106/8/70
f 77/5/71 102/5/71 103/5/71 78/5/71
f 78/5/72 103/5/72 105/6/72 80/6/72
f 80/6/73 105/6/73 101/3/73 76/3/73
f 79/7/74 104/7/74 102/5/74 77/5/74
f 81/8/75 106/8/75 104/7/75 79/7/75
f 76/3/76 101/3/76 106/8/76 81/8/76
